<?xml version="1.0" encoding="UTF-8"?>
<svg width="48px" height="48px" viewBox="0 0 48 48" version="1.1" xmlns="http://www.w3.org/2000/svg" xmlns:xlink="http://www.w3.org/1999/xlink">
    <!-- Generator: Sketch 50.2 (55047) - http://www.bohemiancoding.com/sketch -->
    <title>102_Edge</title>
    <desc>Created with Sketch.</desc>
    <defs></defs>
    <g id="102_Edge" stroke="none" stroke-width="1" fill="none" fill-rule="evenodd">
        <g id="Microsoft_Edge_logo" transform="translate(1.000000, 0.000000)" fill="#0078D7" fill-rule="nonzero">
            <path d="M14.0752562,28.5 C14.0752562,29.655 14.2491181,30.705 14.6044011,31.65 C14.9823618,32.58 15.4737107,33.4125 16.1011255,34.14 C16.7285402,34.8675 17.461784,35.49 18.3235344,36.015 C19.1550479,36.54 20.0621535,36.975 21.0297329,37.3125 C21.9897531,37.6575 22.9951285,37.9125 24.0156224,38.0775 C25.0512347,38.2425 26.0566101,38.325 27.077104,38.325 C28.3621703,38.325 29.5565261,38.2275 30.6904082,38.025 C31.8242903,37.815 32.9279355,37.5375 34.0164623,37.185 C35.1049891,36.8325 36.1557198,36.4125 37.2064505,35.9325 C38.2647405,35.4525 39.3381488,34.9275 40.4417941,34.3425 L40.4417941,44.5125 C39.2096422,45.1125 38.000168,45.615 36.7906938,46.05 C35.5812196,46.47 34.3717453,46.8375 33.1395935,47.13 C31.9074416,47.43 30.6601713,47.655 29.3826642,47.79 C28.1051571,47.925 26.7974131,48 25.4367546,48 C23.6225433,48 21.8688056,47.79 20.183101,47.3775 C18.4973963,46.965 16.9175206,46.3725 15.4359147,45.5925 C13.9543088,44.8125 12.6012095,43.8675 11.3690576,42.7575 C10.1293465,41.6475 9.07861582,40.395 8.1941878,39.0075 C7.30975978,37.62 6.62943054,36.0975 6.13808164,34.4625 C5.66185117,32.8275 5.41995632,31.0875 5.41995632,29.2425 C5.41995632,27.27 5.69208802,25.395 6.23635142,23.6025 C6.78817403,21.8025 7.56677306,20.1675 8.59482614,18.6675 C9.61532001,17.1675 10.8625903,15.8325 12.336637,14.67 C13.8106837,13.5075 15.4661515,12.555 17.3105997,11.82 C16.3052243,12.8175 15.519066,13.995 14.9672434,15.3675 C14.4003024,16.7325 14.0450193,18.105 13.8862758,19.4775 L31.106165,19.4775 C31.106165,17.7525 30.932303,16.2525 30.57702,14.9625 C30.2217369,13.6725 29.6547959,12.6 28.8610784,11.7525 C28.0749202,10.8975 27.0619856,10.2525 25.8147153,9.8325 C24.567445,9.405 23.0631614,9.1875 21.3018646,9.1875 C19.2230808,9.1875 17.144297,9.4875 15.0655132,10.11 C12.9867294,10.71 11.0137746,11.5725 9.13908953,12.66 C7.2644045,13.7625 5.54090375,15.06 3.96858727,16.545 C2.39627079,18.045 1.07340837,19.6575 0,21.405 C0.226776415,19.38 0.680329246,17.43 1.30774399,15.5775 C1.93515874,13.725 2.76667227,12 3.76448849,10.4025 C4.76230472,8.8275 5.93398287,7.3875 7.27196372,6.0975 C8.60994457,4.8075 10.0915505,3.6975 11.7318999,2.7975 C13.3722493,1.8975 15.1108685,1.17 17.0006719,0.6825 C18.8904754,0.255 20.9012263,0 23.0178061,0 C24.2575172,0 25.4896691,0.1125 26.7218209,0.33 C27.9539728,0.555 29.1558878,0.855 30.3275659,1.245 C32.6558038,2.04 34.7345876,3.15 36.5639174,4.56 C38.3932471,5.985 39.9277675,7.605 41.1750378,9.4575 C42.4223081,11.31 43.3672098,13.3575 44.0173022,15.585 C44.6673946,17.8125 45,20.13 45,22.5375 L45,28.5 L14.0752562,28.5 Z" id="Shape"></path>
        </g>
    </g>
</svg>